<svg width="57" height="65" viewBox="0 0 57 65" fill="none" xmlns="http://www.w3.org/2000/svg">
<path d="M39.2046 0.122459C39.1823 0.205029 39.1601 0.792185 39.1601 1.44356C39.1601 2.13163 39.1156 2.86558 39.0563 3.20503C38.9969 3.52613 38.9302 4.17751 38.9005 4.65457C38.8783 5.13163 38.8041 5.85641 38.7522 6.26008C38.6558 6.9298 38.4926 8.79218 38.4629 9.47108C38.4555 9.78301 38.3517 9.75549 40.1243 10.0307C40.6731 10.1225 41.2293 10.2417 41.348 10.2968C41.4741 10.361 41.7411 10.4436 41.9413 10.4803C42.149 10.5078 42.3863 10.5995 42.4753 10.6729C42.5643 10.7463 42.7275 10.8014 42.8313 10.8014C42.9352 10.8014 43.128 10.8748 43.2615 10.9573C43.395 11.0399 43.6175 11.1408 43.7584 11.1775C43.8993 11.2142 44.1218 11.2968 44.2479 11.361C44.4861 11.4775 45.0251 11.9705 45.2184 12.1023C45.2665 12.1767 45.3286 12.249 45.3975 12.3151C45.5162 12.3518 45.6274 12.416 45.6571 12.4619C45.6793 12.5078 45.8054 12.6087 45.9315 12.6821C46.065 12.7555 46.3023 12.9206 46.4655 13.0491C46.6287 13.1683 46.8438 13.3243 46.9476 13.3793C47.5483 13.7555 49.2987 15.7096 49.9439 16.7371C50.3148 17.3243 50.5002 17.4344 50.6708 17.1683C50.8562 16.8931 51.3086 16.3426 52.1096 15.416C52.5546 14.9023 53.1331 14.2326 53.4001 13.9206C53.6671 13.6087 54.0973 13.1225 54.3568 12.8381C54.6164 12.5445 54.9798 12.1316 55.1727 11.9115C55.3581 11.6913 55.6993 11.3426 55.9218 11.1316C56.4038 10.6913 56.4409 10.6362 56.4409 10.3793C56.4409 10.1133 56.3 10.0582 55.9366 10.1775C55.7363 10.2417 55.1578 10.2417 54.1343 10.1775C52.3766 10.0674 52.3395 10.0766 52.2579 10.7555C52.1763 11.3885 51.7091 12.1683 51.3234 12.3151C51.2196 12.3518 51.0861 12.4436 51.0119 12.517C50.6559 12.9115 49.3877 12.6179 48.9204 12.0399C48.0749 10.994 48.0749 8.80136 48.913 8.24173C48.9946 8.18668 49.1133 8.10411 49.1726 8.05824C49.2319 8.00319 49.4025 7.91145 49.5434 7.83806C50.3073 7.45274 50.2332 7.56283 50.1813 6.90228C50.159 6.58118 50.0923 6.15916 50.0329 5.9665C49.981 5.77384 49.9143 5.23255 49.8846 4.75549C49.8549 4.27842 49.7882 3.6087 49.7288 3.26007C49.6695 2.91145 49.6176 2.31512 49.6176 1.93897C49.6176 1.2876 49.6102 1.26007 49.4396 1.26007C49.3432 1.26007 49.2245 1.3243 49.1726 1.40686C49.1133 1.48026 48.9723 1.6087 48.8463 1.68209C48.7202 1.75549 48.4828 1.92062 48.3197 2.03989C48.1565 2.15916 47.9118 2.3243 47.7857 2.39769C47.6714 2.51605 47.6089 2.58636 47.5632 2.63715C47.5632 2.68302 47.4593 2.77384 47.3629 2.83806C47.2665 2.90228 47.0588 3.06742 46.9031 3.19586C46.6287 3.41604 46.1392 3.66374 45.6348 3.81971C45.3901 3.90228 44.9451 4.2509 44.9451 4.37017C44.9451 4.39769 45.0267 4.73714 45.1305 5.11329C45.3456 5.9298 45.353 6.00319 45.1973 6.59035C44.819 8.02154 43.2244 8.76466 42.1638 8.00319C41.1107 7.23255 40.814 5.38852 41.5631 4.2509C41.9117 3.73714 41.9117 3.71879 41.3628 2.91145C40.725 1.9665 40.0204 0.810534 39.8795 0.471085C39.7089 0.0674152 39.2936 -0.152769 39.2046 0.122459Z" fill="black"/>
<path d="M47.1848 33.6546C47.3646 33.4084 48.5687 31.2961 48.889 30.8849C48.506 30.6096 47.9967 30.182 47.7188 29.994C47.3109 29.7188 46.2132 29.1958 45.8498 29.1041C45.7163 29.0674 45.516 28.9848 45.4048 28.9114C45.2935 28.8381 45.1081 28.783 44.982 28.783C44.3595 28.6087 44.2117 28.5164 43.9585 27.939C43.9363 27.7188 43.8621 27.416 43.8028 27.2692C43.736 27.1133 43.6841 26.939 43.6841 26.8747C43.6841 26.7555 43.3652 25.8381 43.2391 25.572C43.1946 25.4986 43.1205 25.3059 43.0611 25.1592C42.5939 23.9298 40.3911 21.8289 39.197 21.4527C39.071 21.416 38.9004 21.3335 38.804 21.2692C38.4925 21.0582 37.4393 21.0307 31.6098 21.0491C23.9632 21.0674 20.8111 20.9298 20.24 20.572C20.1288 20.4986 19.9582 20.4344 19.8692 20.4344C19.7209 20.4344 19.4761 20.3151 18.9125 19.9848C18.3859 19.6729 18.193 19.5261 17.177 18.7004C16.6207 18.2417 15.345 16.5169 15.13 15.939C15.0855 15.8105 14.9668 15.5445 14.8704 15.3426C14.685 14.9665 14.6182 14.8014 14.3883 14.15C14.2029 13.6454 14.0916 13.2234 13.973 12.6362C13.9136 12.361 13.832 12.0582 13.795 11.9757C13.7208 11.8105 13.6911 11.2325 13.7505 11.1592C13.7801 11.1225 22.7543 11.1408 33.0412 11.205C38.4109 11.2325 38.626 11.2417 39.2341 11.4252C39.5827 11.5353 39.9906 11.627 40.139 11.627C40.2947 11.627 40.584 11.7096 40.7916 11.8105C40.9993 11.9114 41.2663 11.994 41.3924 11.994C41.511 11.994 41.741 12.0766 41.9041 12.1775C42.0673 12.2784 42.2527 12.361 42.3269 12.361C42.5197 12.361 43.6545 12.9114 44.2181 13.2784C44.3665 13.3793 44.5296 13.4619 44.5741 13.4619C44.6186 13.4619 44.7447 13.5353 44.856 13.6362C44.9672 13.728 45.2342 13.939 45.4493 14.1041C45.657 14.2784 45.835 14.4436 45.835 14.4803C45.835 14.517 45.9091 14.5812 46.0055 14.6179C46.0945 14.6454 46.2206 14.728 46.28 14.7922C46.3393 14.8564 46.4728 14.939 46.5766 14.9757C47.207 15.2142 49.165 17.6454 50.0995 19.3702C50.589 20.2692 50.6113 20.2968 50.9005 20.9023C51.0563 21.2234 51.212 21.5536 51.2491 21.627C51.3752 21.8839 51.6941 22.7922 51.6941 22.9023C51.6941 22.9573 51.7609 23.1592 51.8425 23.3426C51.924 23.5353 51.9908 23.7463 51.9908 23.8105C51.9908 23.8839 52.0353 24.0674 52.0946 24.2234C52.154 24.3885 52.2355 24.7004 52.28 24.9298C52.3245 25.1591 52.4061 25.6087 52.4729 25.939C52.5396 26.2692 52.6435 26.8014 52.7028 27.1316C52.8511 27.9023 52.9179 30.5903 52.814 31.627C52.7176 32.627 52.4803 34.2142 52.4135 34.3518C52.3839 34.416 52.3245 34.7004 52.28 34.994C52.2355 35.2784 52.154 35.5995 52.0946 35.7004C52.0353 35.8014 51.9908 35.9757 51.9908 36.0766C51.9908 36.1775 51.9315 36.4069 51.8573 36.5812C51.7757 36.7555 51.6941 37.0215 51.6645 37.1775C51.6348 37.3243 51.568 37.5169 51.5087 37.5903C51.4568 37.6637 51.39 37.8289 51.3604 37.9573C51.3307 38.0858 51.264 38.2509 51.212 38.3243C51.1601 38.3977 51.0934 38.5536 51.0637 38.6729C51.034 38.7922 50.7596 39.3518 50.4555 39.9114C49.8919 40.939 49.7732 41.1408 49.2615 41.8931C48.5272 42.9757 46.8733 44.838 46.5247 44.9665C46.4283 45.0032 46.3541 45.0674 46.3541 45.1041C46.3541 45.1958 45.657 45.7555 45.5457 45.7555C45.5012 45.7555 45.4419 45.8105 45.4196 45.8839C45.3974 45.9573 45.2787 46.0491 45.16 46.0766C45.0414 46.1133 44.9301 46.1775 44.9079 46.2234C44.8856 46.2692 44.6186 46.4527 44.3145 46.627C44.0105 46.8105 43.7435 46.994 43.7212 47.0399C43.699 47.0858 43.5729 47.15 43.4394 47.1775C43.3133 47.2142 43.165 47.2784 43.1205 47.3243C43.0166 47.4344 42.275 47.7555 41.7855 47.9023C41.5778 47.9757 41.3479 48.0674 41.2663 48.1225C41.1921 48.1683 40.9251 48.2417 40.6804 48.2784C40.4356 48.3243 40.1315 48.4069 40.0055 48.4711C39.8794 48.5353 39.3676 48.6362 38.8707 48.6821C38.3738 48.7371 37.9362 48.8014 37.8917 48.838C37.7953 48.9114 18.9421 48.8931 18.1189 48.8197C17.214 48.728 16.91 48.8839 16.91 49.4344C16.91 49.5903 16.8655 49.8197 16.8061 49.9573C16.7542 50.0949 16.68 50.3885 16.6504 50.6179C16.6207 50.838 16.554 51.1133 16.502 51.2142C16.4501 51.3151 16.3834 51.5445 16.3537 51.7188C16.324 51.8931 16.2573 52.1225 16.2128 52.2234C16.1609 52.3243 16.0941 52.572 16.0645 52.7738C16.0348 52.9757 15.968 53.2234 15.9161 53.3243C15.8568 53.4252 15.79 53.7004 15.7604 53.9206C15.7307 54.15 15.6714 54.3793 15.6343 54.4436C15.5972 54.5078 15.5156 54.7738 15.4637 55.0399C15.4118 55.3059 15.3154 55.6913 15.2486 55.8931C15.1893 56.0949 15.1374 56.3518 15.13 56.4527C15.13 56.5628 15.078 56.7004 15.0187 56.7647C14.9594 56.8289 14.9075 56.9757 14.9075 57.0949C14.9075 57.2234 14.8259 57.5169 14.7295 57.7555C14.633 57.994 14.4773 58.3977 14.3735 58.6454C13.8617 59.9848 12.675 61.728 11.7405 62.5169C11.1324 63.0399 10.1015 63.7371 9.94571 63.7371C9.91604 63.7371 9.76771 63.8197 9.60454 63.9206C9.44138 64.0215 9.25596 64.1041 9.18179 64.1041C9.10763 64.1041 8.96671 64.1591 8.87771 64.2325C8.78871 64.3059 8.50688 64.4069 8.25471 64.4619C8.00254 64.5078 7.73554 64.5903 7.66138 64.6362C7.58721 64.6913 6.36346 64.7371 4.85787 64.7555L2.18787 64.7922L2.16562 64.572C2.15079 64.4527 2.18787 64.2234 2.24721 64.0674C2.30654 63.9114 2.39554 63.6362 2.44746 63.4619C2.49196 63.2876 2.61804 62.8747 2.72187 62.5445C2.81829 62.2142 2.93696 61.8013 2.98146 61.627C3.01854 61.4527 3.10012 61.205 3.15204 61.0766C3.24104 60.8564 3.68604 59.2601 3.89371 58.416C4.07912 57.6454 4.23487 57.0858 4.33871 56.8105C4.39804 56.6546 4.46479 56.3885 4.49446 56.2142C4.52412 56.0399 4.58346 55.7738 4.64279 55.6179C4.73179 55.3426 4.88012 54.8105 5.08037 54.0124C5.23612 53.3885 5.42154 52.7188 5.52537 52.4069C5.65146 52.0399 5.85171 51.2968 5.94071 50.8472C5.98521 50.6454 6.06679 50.3885 6.12612 50.2784C6.18546 50.1683 6.22996 50.0215 6.22996 49.9665C6.22996 49.9023 6.29671 49.6821 6.37087 49.4803C6.77879 48.4069 6.99388 47.8747 7.15704 47.5445C7.25343 47.3427 7.38689 47.0492 7.45365 46.9024L7.45371 46.9023C7.80971 46.0766 8.49204 45.0032 9.38204 43.8839C9.71579 43.4619 10.7986 42.361 10.8802 42.361C10.9247 42.361 11.0137 42.2784 11.0879 42.1775C11.162 42.0766 11.2585 41.994 11.2955 41.994C11.34 41.994 11.429 41.9298 11.4958 41.8564C11.659 41.6729 13.4983 40.5261 13.6244 40.5261C13.6837 40.5261 13.8024 40.4711 13.8914 40.3977C13.9804 40.3243 14.188 40.2234 14.3512 40.1683C14.5144 40.1225 14.7814 40.0215 14.9445 39.939C15.1077 39.8656 15.3302 39.8014 15.434 39.7922C15.5453 39.7922 15.7455 39.7371 15.879 39.6637C16.02 39.5903 16.3166 39.5078 16.5391 39.4711C16.7616 39.4344 17.1176 39.3518 17.3179 39.2876C18.0595 39.0307 20.6035 38.9481 26.4404 38.9848C35.904 39.0491 39.8052 38.9298 40.6062 38.5536C40.7694 38.4803 41.0512 38.3793 41.2366 38.3335C41.6149 38.2325 42.2008 38.0032 42.5345 37.8289C42.6606 37.7647 42.9425 37.6179 43.165 37.4986C43.3875 37.3885 43.6545 37.2325 43.7583 37.1592C43.8621 37.0858 44.0327 36.9848 44.1514 36.939C44.2626 36.8839 44.3516 36.8014 44.3516 36.7647C44.3516 36.728 44.4555 36.6454 44.5815 36.5903L44.6013 36.5741C44.7461 36.4556 44.8298 36.387 44.928 36.2208C45.0499 36.0696 45.0458 36.0765 45.149 35.9683C45.327 35.9683 46.5395 34.5812 47.1848 33.6546Z" fill="black"/>
<path d="M21.3674 23.7371C20.8557 23.783 20.3662 23.838 20.2697 23.8747C20.1733 23.9022 19.6171 23.9665 19.0386 24.0123C18.4601 24.0674 17.8 24.1683 17.5775 24.2417C17.355 24.3151 17.0361 24.3793 16.8655 24.3793C16.6949 24.3793 16.4131 24.4435 16.2425 24.5169C16.0719 24.5903 15.7085 24.7004 15.4341 24.7463C15.1671 24.8013 14.863 24.8839 14.7592 24.9298C14.6553 24.9848 14.3216 25.0766 14.0175 25.15C13.7134 25.2233 13.2313 25.3701 12.9421 25.4711C12.6602 25.572 12.2746 25.7004 12.0892 25.7646C11.9037 25.8197 11.5922 25.9389 11.3846 26.0399C11.1843 26.1316 10.8802 26.2325 10.7171 26.2692C10.5539 26.3059 10.3537 26.3885 10.2721 26.4527C10.1905 26.5169 9.96058 26.5995 9.75292 26.6362C9.55267 26.6729 9.31533 26.7555 9.23375 26.8197C9.15217 26.8931 8.989 26.9481 8.86292 26.9481C8.74425 26.9573 8.50692 27.0215 8.34375 27.0949C8.18058 27.1683 7.88392 27.2876 7.67625 27.361C6.48958 27.7738 6.24483 27.8564 6.04458 27.9481C4.96175 28.4068 3.382 28.5536 2.63292 28.2784C1.157 27.7188 0.5785 28.0123 1.03833 29.0857C1.23117 29.5353 1.22375 29.6729 0.964167 30.3059C0.838083 30.5995 0.704583 31.0123 0.660083 31.2142C0.615583 31.416 0.526583 31.6821 0.459833 31.8105C0.0370833 32.6178 0 32.7922 0 33.8747C0 34.5536 0.0370833 35.049 0.103833 35.2692C0.163167 35.4619 0.229917 35.7371 0.259583 35.8931C0.363417 36.4802 0.741667 36.3518 0.741667 35.7188C0.741667 35.5078 0.793583 35.1224 0.852917 34.8747C0.91225 34.627 0.964167 34.3151 0.964167 34.1775C0.964167 33.9573 1.19408 33.3243 1.40917 32.9114C2.08408 31.6637 2.20275 31.5169 2.759 31.26C3.71575 30.8197 3.81217 30.783 4.24233 30.7004C4.47967 30.6545 4.78375 30.5628 4.90983 30.4986C5.04333 30.4252 5.35483 30.3426 5.59958 30.3059C5.84433 30.2784 6.20775 30.1866 6.41542 30.1133C7.40925 29.7371 12.1485 29.7371 13.35 30.1133C13.5725 30.1775 13.9582 30.2692 14.2029 30.2967C14.4477 30.3334 14.7888 30.4435 14.9594 30.5353C15.13 30.6362 15.3302 30.7096 15.4044 30.7096C15.4786 30.7188 15.6714 30.7922 15.8346 30.8931C15.9977 30.994 16.1832 31.0674 16.2425 31.0766C16.3092 31.0766 16.4872 31.1591 16.6504 31.26C16.8062 31.361 17.0509 31.4711 17.1918 31.4986C17.3253 31.5353 17.4588 31.6178 17.4811 31.6821C17.5404 31.8655 17.9409 31.8472 18.0002 31.6545C18.0299 31.5628 18.0077 31.4802 17.9557 31.4619C17.9038 31.4435 17.7555 31.3059 17.6294 31.1591C17.2067 30.6821 17.177 30.6454 16.8729 30.4527C16.5762 30.2692 16.0422 29.9665 15.6121 29.7463C15.4934 29.6821 15.2042 29.5261 14.9817 29.4068C14.418 29.0949 13.8766 28.8839 13.4538 28.8197C13.2536 28.783 12.905 28.7004 12.6825 28.6362C12.46 28.5628 12.1188 28.5078 11.926 28.5078C11.659 28.5078 11.5552 28.4711 11.5181 28.361C11.4365 28.0857 12.015 27.7188 13.0904 27.3701C13.2981 27.2967 13.5428 27.205 13.6467 27.1591C13.8247 27.0674 14.3364 26.8747 15.3896 26.4986C15.6788 26.3977 16.0571 26.2876 16.2425 26.26C16.4279 26.2233 16.7617 26.15 16.9842 26.0766C18.4601 25.6362 20.7963 25.3426 22.6579 25.3518C23.7556 25.3518 25.6987 25.5995 25.8471 25.7555C25.8916 25.8013 26.1067 25.8747 26.3292 25.9298C26.5517 25.9756 26.9077 26.0857 27.1079 26.1683C28.1537 26.5811 28.4652 26.7096 28.6654 26.8105C28.7915 26.8839 29.1994 27.1041 29.5851 27.3059C29.9633 27.5169 30.3193 27.6821 30.3712 27.6821C30.4157 27.6821 30.5344 27.7646 30.6308 27.8655C30.7272 27.9665 30.8459 28.049 30.9052 28.049C30.9646 28.049 31.1722 28.1133 31.3725 28.1958C31.8472 28.3885 33.2489 28.2784 33.2786 28.049C33.3008 27.9114 32.8484 27.4986 32.6852 27.4986C32.6333 27.4986 32.4776 27.4068 32.3367 27.2967C32.1957 27.1866 31.8694 26.9573 31.6098 26.8013C31.3502 26.6362 31.0981 26.4527 31.0462 26.4068C30.9942 26.3518 30.7421 26.205 30.4751 26.0857C30.2155 25.9573 29.726 25.6912 29.3848 25.4802C29.0437 25.2784 28.7099 25.1133 28.6432 25.1133C28.5764 25.1041 28.3836 25.0307 28.2204 24.9298C28.0572 24.8289 27.8496 24.7555 27.7606 24.7463C27.6716 24.7463 27.4342 24.6637 27.2414 24.572C27.0412 24.4802 26.6777 24.3701 26.4404 24.3334C26.1957 24.2967 25.9583 24.2325 25.9138 24.1866C25.8693 24.1408 25.5133 24.0674 25.1277 24.0123C24.7346 23.9573 24.3044 23.8747 24.1635 23.8197C23.7927 23.6912 22.4057 23.6454 21.3674 23.7371Z" fill="black"/>
<path d="M20.5442 28.7738C20.166 28.8564 20.1808 29.0674 20.611 29.4068C20.8928 29.6362 21.056 29.7004 21.3378 29.7004C21.5381 29.7004 21.768 29.7555 21.8496 29.8289C21.9312 29.9022 22.1611 29.9848 22.3613 30.0215C22.569 30.049 22.9324 30.1316 23.1772 30.205C23.4219 30.2692 23.8892 30.3701 24.2155 30.4252C24.5418 30.4802 24.9942 30.5628 25.2167 30.6087C26.3589 30.8564 29.7632 30.9573 31.7063 30.8013C33.249 30.6729 39.9611 30.6729 40.5322 30.8013C40.7769 30.8656 41.3777 30.9573 41.8672 31.0215C42.3567 31.0949 42.8462 31.1867 42.95 31.2417C43.0538 31.2876 43.3357 31.361 43.5804 31.3977C43.8177 31.4344 44.1218 31.5169 44.2405 31.5811C44.3666 31.6362 44.5965 31.7188 44.7597 31.7555C45.1305 31.838 45.9167 32.15 46.3246 32.3701C46.4952 32.4711 46.688 32.5445 46.7547 32.5445C46.8215 32.5445 47.0217 32.6362 47.1923 32.7463C47.5928 33.0032 47.756 33.0949 47.7931 33.0949C47.8079 33.0949 47.9785 32.7463 48.0758 32.5445C48.1731 32.3426 48.3097 32.1136 48.3097 32.1136C48.3097 32.1136 46.8808 31.0766 46.8289 31.0766C46.7918 31.0766 46.6657 31.0123 46.5397 30.9298C46.2578 30.7463 45.6052 30.4527 45.1231 30.3059C44.9154 30.2325 44.6855 30.1408 44.6039 30.0857C44.5297 30.0399 44.2998 29.9665 44.0922 29.9298C43.8919 29.9022 43.5878 29.8105 43.4247 29.7463C43.2615 29.6729 42.8313 29.572 42.4605 29.5261C42.0971 29.4802 41.6966 29.3885 41.5705 29.3334C40.9252 29.0215 32.4406 29.0215 31.0017 29.3426C29.8077 29.5995 23.7112 29.5261 23.103 29.2417C22.9992 29.1958 22.5616 29.1316 22.124 29.0949C21.5158 29.049 21.2785 28.994 21.145 28.8656C21.0486 28.7646 20.9299 28.7004 20.8854 28.7004C20.8409 28.7096 20.6852 28.7371 20.5442 28.7738Z" fill="black"/>
<path d="M13.6911 31.5903C13.6095 31.8472 13.6466 32.1316 13.7949 32.361C13.8765 32.4894 13.9432 32.627 13.9432 32.6821C13.9432 32.8013 14.6701 33.8472 14.8184 33.9573C14.8851 34.0032 15.1225 34.2692 15.3524 34.5536C15.5749 34.838 15.9086 35.1591 16.0941 35.2692C16.8209 35.7004 17.1101 35.8472 17.2733 35.8472C17.3623 35.8472 17.5329 35.9114 17.6516 35.9848C18.0966 36.2692 20.1732 36.3885 26.737 36.4894C30.2451 36.5536 33.2785 36.572 33.4713 36.5353C34.0572 36.4252 33.9979 36.2325 33.3378 36.1133C33.1376 36.0674 32.6703 35.9756 32.2995 35.9023C31.9361 35.8289 30.9348 35.7463 30.0745 35.7096C29.2216 35.6821 28.0349 35.5995 27.4416 35.5261C26.8482 35.4527 25.7431 35.3793 24.9792 35.3518C24.2153 35.3243 23.5256 35.2601 23.4514 35.2142C23.3772 35.1683 22.5911 35.0857 21.7085 35.0307C20.8185 34.9848 20.0694 34.9206 20.0323 34.8931C20.0026 34.8656 19.5799 34.783 19.1052 34.7096C18.6306 34.6362 18.2004 34.5353 18.1485 34.4894C18.0966 34.4344 17.926 34.3701 17.7628 34.3334C17.5996 34.2967 17.3994 34.2142 17.3104 34.15C17.2214 34.0766 16.9396 33.9206 16.68 33.783C16.4204 33.6454 16.1386 33.4619 16.0496 33.361C15.968 33.2692 15.8419 33.1867 15.7751 33.1867C15.7084 33.1867 15.6416 33.15 15.612 33.1041C15.5897 33.0582 15.3153 32.7922 14.989 32.5169C14.6701 32.2325 14.2992 31.8839 14.1583 31.7279C13.8839 31.4068 13.7578 31.3701 13.6911 31.5903Z" fill="black"/>
<path d="M7.41663 32.2967C7.14963 32.4068 6.85296 32.572 6.74913 32.6637C6.65271 32.7463 6.54146 32.8197 6.50438 32.8197C6.34121 32.8197 5.49571 33.7555 5.16938 34.2967C5.10263 34.416 4.96171 34.6454 4.85788 34.8013C4.75404 34.9665 4.67246 35.1958 4.67246 35.3151C4.67246 35.4344 4.62054 35.627 4.55379 35.7371C4.41288 35.9848 4.46479 36.2142 4.65021 36.2142C4.78371 36.2142 5.19163 35.8105 5.19163 35.6821C5.19163 35.4527 6.50438 34.0123 6.71204 34.0123C6.74913 34.0123 6.83071 33.9573 6.89004 33.8931C6.95679 33.8197 7.33504 33.6729 7.72813 33.5536C9.25596 33.1133 10.7764 33.7555 11.8666 35.3059C12.4006 36.0582 12.46 36.1224 12.6083 36.1224C12.6973 36.1224 12.7566 36.0582 12.7566 35.9665C12.7566 35.6545 12.3784 34.5995 12.1707 34.3151C12.052 34.15 11.9408 33.9848 11.926 33.9389C11.8889 33.8197 10.8802 32.8197 10.7986 32.8197C10.7615 32.8197 10.6725 32.7646 10.6132 32.7004C10.0644 32.1316 8.33629 31.9114 7.41663 32.2967Z" fill="black"/>
<path d="M40.4579 32.15C39.3528 32.3518 37.558 33.8014 37.3355 34.6729C37.3058 34.7922 37.2242 34.9848 37.1501 35.1041C37.0685 35.2234 37.0091 35.4344 37.0091 35.5628C37.0091 35.7004 36.9721 35.8564 36.9201 35.9206C36.8608 35.994 36.8831 36.0491 37.0314 36.1316C37.2539 36.2601 37.4096 36.15 37.4986 35.8289C37.5876 35.4711 38.8781 34.0124 39.1006 34.0124C39.1526 34.0124 39.2712 33.9481 39.3602 33.8748C39.5976 33.6729 40.5988 33.3702 41.0438 33.3702C41.6891 33.3702 42.9425 33.8289 43.3504 34.2142C43.8028 34.6454 44.0995 34.9757 44.3294 35.3243C44.8931 36.1683 45.1601 35.5628 44.6409 34.6179C43.6767 32.8472 42.0228 31.8748 40.4579 32.15Z" fill="black"/>
</svg>
