<svg width="138" height="68" viewBox="0 0 138 68" fill="none" xmlns="http://www.w3.org/2000/svg">
<path d="M40.3386 1.22366C40.3164 1.30622 40.2941 1.89338 40.2941 2.54476C40.2941 3.23283 40.2496 3.96678 40.1903 4.30623C40.131 4.62733 40.0642 5.2787 40.0345 5.75577C40.0123 6.23283 39.9381 6.9576 39.8862 7.36127C39.7898 8.031 39.6266 9.89338 39.597 10.5723C39.5895 10.8842 39.4857 10.8567 41.2583 11.1319C41.8071 11.2237 42.3634 11.3429 42.482 11.398C42.6081 11.4622 42.8751 11.5448 43.0754 11.5815C43.283 11.609 43.5204 11.7007 43.6094 11.7741C43.6984 11.8475 43.8615 11.9026 43.9654 11.9026C44.0692 11.9026 44.262 11.976 44.3955 12.0585C44.529 12.1411 44.7515 12.242 44.8925 12.2787C45.0334 12.3154 45.2559 12.398 45.382 12.4622C45.6201 12.5787 46.1592 13.0717 46.3524 13.2035C46.4006 13.2779 46.4627 13.3502 46.5315 13.4163C46.6502 13.453 46.7615 13.5172 46.7911 13.5631C46.8134 13.609 46.9395 13.7099 47.0655 13.7833C47.199 13.8567 47.4364 14.0218 47.5995 14.1503C47.7627 14.2695 47.9778 14.4255 48.0816 14.4805C48.6824 14.8567 50.4327 16.8108 51.078 17.8383C51.4488 18.4255 51.6342 18.5356 51.8048 18.2695C51.9902 17.9943 52.4426 17.4438 53.2436 16.5172C53.6886 16.0035 54.2671 15.3337 54.5341 15.0218C54.8011 14.7099 55.2313 14.2237 55.4909 13.9393C55.7505 13.6457 56.1139 13.2328 56.3067 13.0126C56.4921 12.7925 56.8333 12.4438 57.0558 12.2328C57.5379 11.7925 57.575 11.7374 57.575 11.4805C57.575 11.2145 57.434 11.1594 57.0706 11.2787C56.8704 11.3429 56.2919 11.3429 55.2684 11.2787C53.5106 11.1686 53.4735 11.1778 53.392 11.8567C53.3104 12.4897 52.8431 13.2695 52.4575 13.4163C52.3536 13.453 52.2201 13.5448 52.146 13.6182C51.79 14.0126 50.5217 13.7191 50.0545 13.1411C49.209 12.0952 49.209 9.90256 50.047 9.34292C50.1286 9.28788 50.2473 9.20531 50.3066 9.15944C50.366 9.10439 50.5365 9.01265 50.6775 8.93925C51.4414 8.55393 51.3672 8.66402 51.3153 8.00347C51.293 7.68237 51.2263 7.26035 51.167 7.06769C51.115 6.87503 51.0483 6.33375 51.0186 5.85668C50.989 5.37962 50.9222 4.7099 50.8629 4.36127C50.8035 4.01265 50.7516 3.41632 50.7516 3.04017C50.7516 2.38879 50.7442 2.36127 50.5736 2.36127C50.4772 2.36127 50.3585 2.42549 50.3066 2.50806C50.2473 2.58146 50.1064 2.7099 49.9803 2.78329C49.8542 2.85668 49.6169 3.02182 49.4537 3.14109C49.2905 3.26035 49.0458 3.42549 48.9197 3.49889C48.8054 3.61725 48.7429 3.68756 48.6972 3.73834C48.6972 3.78421 48.5934 3.87503 48.497 3.93925C48.4005 4.00347 48.1929 4.16861 48.0371 4.29705C47.7627 4.51723 47.2732 4.76494 46.7689 4.9209C46.5241 5.00347 46.0791 5.3521 46.0791 5.47136C46.0791 5.49889 46.1607 5.83834 46.2645 6.21448C46.4796 7.031 46.487 7.10439 46.3313 7.69155C45.953 9.12274 44.3585 9.86586 43.2979 9.10439C42.2447 8.33375 41.948 6.48971 42.6971 5.3521C43.0457 4.83834 43.0457 4.81999 42.4969 4.01265C41.859 3.06769 41.1545 1.91173 41.0135 1.57228C40.843 1.16861 40.4276 0.948427 40.3386 1.22366Z" fill="white"/>
<path d="M48.3188 34.7558C48.4986 34.5096 49.7028 32.3973 50.023 31.9861C49.64 31.7108 49.1307 31.2832 48.8528 31.0952C48.4449 30.82 47.3472 30.297 46.9838 30.2053C46.8503 30.1686 46.6501 30.086 46.5388 30.0126C46.4276 29.9392 46.2422 29.8842 46.1161 29.8842C45.4935 29.7099 45.3457 29.6176 45.0926 29.0402C45.0703 28.82 44.9962 28.5172 44.9368 28.3704C44.8701 28.2145 44.8182 28.0402 44.8182 27.9759C44.8182 27.8567 44.4992 26.9392 44.3732 26.6732C44.3287 26.5998 44.2545 26.4071 44.1952 26.2603C43.7279 25.031 41.5252 22.9301 40.3311 22.5539C40.205 22.5172 40.0344 22.4347 39.938 22.3704C39.6265 22.1594 38.5733 22.1319 32.7438 22.1503C25.0972 22.1686 21.9452 22.031 21.3741 21.6732C21.2628 21.5998 21.0922 21.5356 21.0032 21.5356C20.8549 21.5356 20.6102 21.4163 20.0465 21.086C19.5199 20.7741 19.3271 20.6273 18.311 19.8016C17.7547 19.3429 16.4791 17.6181 16.264 17.0402C16.2195 16.9117 16.1008 16.6457 16.0044 16.4438C15.819 16.0677 15.7522 15.9025 15.5223 15.2512C15.3369 14.7466 15.2257 14.3246 15.107 13.7374C15.0477 13.4622 14.9661 13.1594 14.929 13.0769C14.8548 12.9117 14.8252 12.3337 14.8845 12.2603C14.9142 12.2237 23.8883 12.242 34.1752 12.3062C39.5449 12.3337 39.76 12.3429 40.3682 12.5264C40.7167 12.6365 41.1247 12.7282 41.273 12.7282C41.4287 12.7282 41.718 12.8108 41.9257 12.9117C42.1333 13.0126 42.4003 13.0952 42.5264 13.0952C42.6451 13.0952 42.875 13.1778 43.0382 13.2787C43.2013 13.3796 43.3867 13.4622 43.4609 13.4622C43.6537 13.4622 44.7885 14.0126 45.3522 14.3796C45.5005 14.4805 45.6637 14.5631 45.7082 14.5631C45.7527 14.5631 45.8787 14.6365 45.99 14.7374C46.1012 14.8292 46.3682 15.0402 46.5833 15.2053C46.791 15.3796 46.969 15.5448 46.969 15.5815C46.969 15.6181 47.0432 15.6824 47.1396 15.7191C47.2286 15.7466 47.3547 15.8292 47.414 15.8934C47.4733 15.9576 47.6068 16.0402 47.7107 16.0769C48.3411 16.3154 50.2991 18.7466 51.2336 20.4714C51.7231 21.3704 51.7453 21.398 52.0346 22.0035C52.1903 22.3246 52.3461 22.6548 52.3832 22.7282C52.5092 22.9851 52.8282 23.8934 52.8282 24.0035C52.8282 24.0585 52.8949 24.2603 52.9765 24.4438C53.0581 24.6365 53.1248 24.8475 53.1248 24.9117C53.1248 24.9851 53.1693 25.1686 53.2287 25.3246C53.288 25.4897 53.3696 25.8016 53.4141 26.031C53.4586 26.2603 53.5402 26.7099 53.6069 27.0402C53.6737 27.3704 53.7775 27.9025 53.8368 28.2328C53.9852 29.0035 54.0519 31.6915 53.9481 32.7282C53.8517 33.7282 53.6143 35.3154 53.5476 35.453C53.5179 35.5172 53.4586 35.8016 53.4141 36.0952C53.3696 36.3796 53.288 36.7007 53.2287 36.8016C53.1693 36.9025 53.1248 37.0769 53.1248 37.1778C53.1248 37.2787 53.0655 37.5081 52.9913 37.6824C52.9097 37.8567 52.8282 38.1227 52.7985 38.2787C52.7688 38.4255 52.7021 38.6181 52.6427 38.6915C52.5908 38.7649 52.5241 38.9301 52.4944 39.0585C52.4647 39.187 52.398 39.3521 52.3461 39.4255C52.2942 39.4989 52.2274 39.6548 52.1977 39.7741C52.1681 39.8934 51.8937 40.453 51.5896 41.0126C51.0259 42.0402 50.9072 42.242 50.3955 42.9943C49.6612 44.0769 48.0073 45.9392 47.6587 46.0677C47.5623 46.1044 47.4882 46.1686 47.4882 46.2053C47.4882 46.297 46.791 46.8567 46.6797 46.8567C46.6352 46.8567 46.5759 46.9117 46.5537 46.9851C46.5314 47.0585 46.4127 47.1503 46.2941 47.1778C46.1754 47.2145 46.0642 47.2787 46.0419 47.3246C46.0197 47.3704 45.7527 47.5539 45.4486 47.7282C45.1445 47.9117 44.8775 48.0952 44.8552 48.1411C44.833 48.187 44.7069 48.2512 44.5734 48.2787C44.4473 48.3154 44.299 48.3796 44.2545 48.4255C44.1507 48.5356 43.409 48.8567 42.9195 49.0035C42.7118 49.0769 42.4819 49.1686 42.4003 49.2236C42.3262 49.2695 42.0592 49.3429 41.8144 49.3796C41.5697 49.4255 41.2656 49.5081 41.1395 49.5723C41.0134 49.6365 40.5017 49.7374 40.0047 49.7833C39.5078 49.8383 39.0702 49.9025 39.0257 49.9392C38.9293 50.0126 20.0762 49.9943 19.2529 49.9209C18.3481 49.8292 18.044 49.9851 18.044 50.5356C18.044 50.6915 17.9995 50.9209 17.9402 51.0585C17.8882 51.1961 17.8141 51.4897 17.7844 51.7191C17.7547 51.9392 17.688 52.2145 17.6361 52.3154C17.5842 52.4163 17.5174 52.6457 17.4877 52.82C17.4581 52.9943 17.3913 53.2236 17.3468 53.3246C17.2949 53.4255 17.2282 53.6732 17.1985 53.875C17.1688 54.0769 17.1021 54.3246 17.0502 54.4255C16.9908 54.5264 16.9241 54.8016 16.8944 55.0218C16.8647 55.2512 16.8054 55.4805 16.7683 55.5447C16.7312 55.609 16.6497 55.875 16.5977 56.1411C16.5458 56.4071 16.4494 56.7925 16.3827 56.9943C16.3233 57.1961 16.2714 57.453 16.264 57.5539C16.264 57.664 16.2121 57.8016 16.1527 57.8658C16.0934 57.9301 16.0415 58.0769 16.0415 58.1961C16.0415 58.3246 15.9599 58.6181 15.8635 58.8567C15.7671 59.0952 15.6113 59.4989 15.5075 59.7466C14.9957 61.086 13.8091 62.8292 12.8746 63.6181C12.2664 64.1411 11.2355 64.8383 11.0797 64.8383C11.0501 64.8383 10.9017 64.9209 10.7386 65.0218C10.5754 65.1227 10.39 65.2053 10.3158 65.2053C10.2417 65.2053 10.1007 65.2603 10.0117 65.3337C9.92274 65.4071 9.64091 65.5081 9.38874 65.5631C9.13657 65.609 8.86958 65.6915 8.79541 65.7374C8.72124 65.7925 7.49749 65.8383 5.99191 65.8567L3.32191 65.8934L3.29966 65.6732C3.28482 65.5539 3.32191 65.3246 3.38124 65.1686C3.44057 65.0126 3.52957 64.7374 3.58149 64.5631C3.62599 64.3888 3.75207 63.9759 3.85591 63.6457C3.95232 63.3154 4.07099 62.9025 4.11549 62.7282C4.15257 62.5539 4.23416 62.3062 4.28607 62.1778C4.37507 61.9576 4.82007 60.3613 5.02774 59.5172C5.21316 58.7466 5.36891 58.187 5.47274 57.9117C5.53207 57.7558 5.59882 57.4897 5.62849 57.3154C5.65816 57.1411 5.71749 56.875 5.77682 56.7191C5.86582 56.4438 6.01416 55.9117 6.21441 55.1136C6.37016 54.4897 6.55557 53.82 6.65941 53.5081C6.78549 53.1411 6.98574 52.398 7.07474 51.9484C7.11924 51.7466 7.20082 51.4897 7.26016 51.3796C7.31949 51.2695 7.36399 51.1227 7.36399 51.0677C7.36399 51.0035 7.43074 50.7833 7.50491 50.5814C7.91282 49.5081 8.12791 48.9759 8.29107 48.6457C8.38747 48.4439 8.52092 48.1504 8.58769 48.0036L8.58774 48.0035C8.94374 47.1778 9.62607 46.1044 10.5161 44.9851C10.8498 44.5631 11.9327 43.4622 12.0142 43.4622C12.0587 43.4622 12.1477 43.3796 12.2219 43.2787C12.2961 43.1778 12.3925 43.0952 12.4296 43.0952C12.4741 43.0952 12.5631 43.031 12.6298 42.9576C12.793 42.7741 14.6323 41.6273 14.7584 41.6273C14.8177 41.6273 14.9364 41.5723 15.0254 41.4989C15.1144 41.4255 15.3221 41.3246 15.4852 41.2695C15.6484 41.2236 15.9154 41.1227 16.0786 41.0402C16.2417 40.9668 16.4642 40.9025 16.5681 40.8934C16.6793 40.8934 16.8796 40.8383 17.0131 40.7649C17.154 40.6915 17.4507 40.609 17.6732 40.5723C17.8957 40.5356 18.2517 40.453 18.4519 40.3888C19.1936 40.1319 21.7375 40.0493 27.5744 40.086C37.0381 40.1503 40.9392 40.031 41.7402 39.6548C41.9034 39.5814 42.1852 39.4805 42.3707 39.4347C42.7489 39.3337 43.3348 39.1044 43.6686 38.9301C43.7947 38.8659 44.0765 38.7191 44.299 38.5998C44.5215 38.4897 44.7885 38.3337 44.8923 38.2603C44.9962 38.187 45.1667 38.086 45.2854 38.0402C45.3967 37.9851 45.4857 37.9025 45.4857 37.8659C45.4857 37.8292 45.5895 37.7466 45.7156 37.6915L45.7354 37.6753C45.8801 37.5568 45.9639 37.4882 46.0621 37.322C46.1839 37.1708 46.1799 37.1777 46.2831 37.0695C46.4611 37.0695 47.6736 35.6824 48.3188 34.7558Z" fill="white"/>
<path d="M61.3573 20.1044C61.3425 21.6915 61.3648 39.1044 61.387 39.1227C61.4093 39.1502 64.1905 39.1686 65.1695 39.1502C65.303 39.1502 65.303 39.086 65.2585 37.8842C65.1992 36.2695 65.1843 33.7466 65.2288 33.6823C65.2511 33.664 66.5193 33.6273 68.0398 33.6181C70.5243 33.5998 70.8358 33.5814 71.0361 33.4438C71.1622 33.3521 71.3253 33.2787 71.3995 33.2787C71.5256 33.2787 72.156 32.9484 72.4823 32.719C72.5417 32.6732 72.6752 32.5906 72.779 32.5356C73.3872 32.2145 74.381 30.8934 74.7073 29.9759C74.7518 29.8475 74.8557 29.5814 74.9373 29.3704C75.0114 29.1686 75.0782 28.9025 75.0782 28.7924C75.0782 28.6732 75.1301 28.3245 75.1968 28.0126C75.36 27.2328 75.1894 25.1319 74.9002 24.3337C74.6703 23.719 74.6183 23.5906 74.5071 23.3337C74.2475 22.7282 72.7197 21.0768 72.4304 21.0768C72.3859 21.0768 72.3118 21.0218 72.2673 20.9484C72.2153 20.875 72.067 20.7833 71.9409 20.7557C71.8074 20.719 71.6294 20.6365 71.5404 20.5631C71.4514 20.4897 71.1473 20.3979 70.8729 20.3429C70.5985 20.297 70.2722 20.2145 70.1461 20.1686C69.8272 20.0401 61.3573 19.9851 61.3573 20.1044ZM69.2561 23.875C69.4193 23.9484 69.6714 24.0218 69.8198 24.0585C69.9755 24.086 70.1313 24.1686 70.1832 24.242C70.2351 24.3154 70.3167 24.3796 70.3612 24.3796C70.5318 24.3796 71.1325 25.3154 71.2141 25.7099C71.2586 25.9301 71.3253 26.1411 71.3698 26.1686C71.4885 26.2603 71.4588 27.7007 71.3328 27.9025C71.2734 28.0034 71.2215 28.1594 71.2215 28.242C71.2215 28.7741 70.1832 29.6365 69.2561 29.8842C68.9446 29.9668 65.303 30.0218 65.2437 29.9484C65.1992 29.8934 65.1992 23.8475 65.2437 23.7557C65.303 23.6273 68.9298 23.7374 69.2561 23.875Z" fill="white"/>
<path d="M77.7631 20.1044C77.7335 20.1594 77.726 21.875 77.7483 23.9025C77.7705 25.9392 77.7705 30.1778 77.7483 33.3062C77.726 36.4438 77.7335 39.0401 77.7557 39.086C77.8076 39.1778 81.5308 39.1869 81.6124 39.086C81.642 39.0493 81.642 37.8383 81.605 36.3979C81.5753 34.9209 81.5753 33.7466 81.6124 33.7007C81.7088 33.5723 84.8757 33.6365 85.0018 33.7649C85.0611 33.82 85.1353 33.9484 85.1724 34.0585C85.2095 34.1594 85.2762 34.3245 85.3281 34.4255C85.6619 35.086 85.8399 35.4163 86.181 36.0034C86.3961 36.3704 86.5741 36.7099 86.5741 36.7466C86.5741 36.7924 86.6409 36.9025 86.7225 36.9943C86.804 37.086 86.8708 37.2145 86.8708 37.2878C86.8708 37.3521 86.9375 37.4805 87.0191 37.5631C87.1007 37.6548 87.1675 37.7649 87.1675 37.8291C87.1675 37.8842 87.2342 38.0034 87.3158 38.0952C87.3974 38.1869 87.4641 38.3062 87.4641 38.3704C87.4641 38.4713 87.5383 38.5998 87.835 39.031C87.9091 39.1411 88.3912 39.1594 91.6323 39.1961C92.0921 39.1961 92.1737 39.031 91.9141 38.6181C91.5655 38.0585 91.0464 37.1961 90.7645 36.7099C90.4975 36.2512 90.097 35.5998 89.3183 34.3337C89.1774 34.0952 89.0068 33.8108 88.9475 33.7007C88.8881 33.5814 88.7769 33.3796 88.7027 33.2512C88.5247 32.9484 88.6211 32.7099 88.9994 32.508C89.83 32.0493 90.3937 31.4438 90.9129 30.4438C91.4914 29.3337 91.6471 28.6181 91.6471 26.9484C91.6545 25.1686 91.4914 24.4071 90.8239 23.1319C90.4605 22.4255 89.207 21.0768 88.9178 21.0768C88.8807 21.0768 88.7917 21.0218 88.7324 20.9576C88.5247 20.7374 87.8646 20.4897 86.7966 20.2145C86.1069 20.0401 77.8595 19.9392 77.7631 20.1044ZM85.7212 23.8658C85.8844 23.9392 86.1217 24.0218 86.2478 24.0493C86.7373 24.1502 87.3232 24.7741 87.6421 25.5264C87.924 26.1869 87.924 27.6089 87.6495 28.2512C87.3677 28.9117 87.1081 29.2236 86.5741 29.5264C86.4703 29.5814 86.2923 29.7007 86.1662 29.7833C85.9363 29.9392 82.0574 30.1044 81.7236 29.9759C81.5901 29.9209 81.5827 29.7741 81.5901 26.8842C81.5901 25.2053 81.605 23.8108 81.6272 23.7649C81.694 23.6365 85.38 23.7282 85.7212 23.8658Z" fill="white"/>
<path d="M94.5098 20.0677C94.4282 20.1319 94.4134 20.3062 94.4356 20.8659C94.495 22.0218 94.4801 37.9576 94.4208 38.4897C94.3466 39.2053 94.3392 39.2053 96.4975 39.1686L98.2997 39.1411L98.3813 38.9301C98.4332 38.7741 98.4332 38.5723 98.3739 38.242C98.2626 37.5815 98.2626 21.3246 98.3739 20.7558C98.5371 19.9668 98.5593 19.9759 96.453 19.9759C95.4443 19.9759 94.5691 20.0126 94.5098 20.0677Z" fill="white"/>
<path d="M101.86 20.1044C101.808 20.187 101.808 20.3246 101.867 20.5815C101.949 20.9484 101.941 22.086 101.778 33.453C101.741 36.5081 101.726 39.031 101.756 39.0677C101.83 39.1594 105.212 39.2053 105.316 39.1227C105.412 39.0493 105.39 30.3337 105.301 29.1319C105.249 28.4989 105.257 28.4163 105.375 28.3613C105.62 28.242 105.754 28.4347 106.258 29.6548C106.317 29.8016 106.503 30.2145 106.673 30.5723C106.836 30.9209 107.022 31.3337 107.081 31.4897C107.148 31.6365 107.348 32.0493 107.526 32.4071C107.704 32.7558 107.897 33.1503 107.949 33.2787C108.001 33.4071 108.149 33.7007 108.283 33.9393C108.416 34.1778 108.527 34.4163 108.527 34.4622C108.527 34.5081 108.579 34.5906 108.646 34.664C108.713 34.7282 108.817 34.9117 108.883 35.0769C109.818 37.2971 109.848 37.3337 111.042 37.2787C111.798 37.2512 111.865 37.2053 112.132 36.5356C112.199 36.3796 112.325 36.0952 112.429 35.8934C112.525 35.6915 112.644 35.4255 112.696 35.2971C112.748 35.1686 112.911 34.8383 113.052 34.5631C113.415 33.8659 113.474 33.7282 113.608 33.4163C113.675 33.2604 113.801 32.9943 113.89 32.8016C114.127 32.3246 114.602 31.3337 114.683 31.1411C114.728 31.0585 114.795 30.9117 114.832 30.82C114.876 30.7374 114.973 30.4989 115.054 30.2971C115.136 30.0952 115.336 29.6365 115.499 29.2879C115.67 28.9301 115.848 28.5081 115.914 28.3429C115.981 28.1594 116.07 28.0493 116.167 28.0493C116.315 28.0493 116.315 28.0952 116.263 33.5264C116.226 38.187 116.233 39.0218 116.322 39.1044C116.389 39.1594 117.079 39.1778 118.206 39.1503L119.986 39.1044L119.971 38.7374C119.897 36.4897 119.801 29.0035 119.808 25.0952C119.808 22.3796 119.786 20.1227 119.764 20.0677C119.734 20.0126 119.133 19.976 118.177 19.976C116.708 19.976 116.626 19.9851 116.493 20.1686C116.345 20.3613 115.877 21.3521 115.685 21.875C115.625 22.0402 115.544 22.1778 115.507 22.1778C115.469 22.1778 115.403 22.2879 115.358 22.4255C115.269 22.7007 115.143 22.9576 114.617 23.9668C114.275 24.6182 114.105 24.9668 113.927 25.3888C113.875 25.5172 113.675 25.9026 113.489 26.2604C113.304 26.609 113.022 27.187 112.859 27.5264C112.532 28.242 112.414 28.4897 111.924 29.5172C111.724 29.9209 111.568 30.2879 111.568 30.3246C111.568 30.3704 111.509 30.5081 111.435 30.6273C111.353 30.7466 111.272 30.9668 111.242 31.1044C111.16 31.5448 110.604 31.6915 110.604 31.2787C110.604 31.1778 110.56 31.0493 110.5 30.9943C110.441 30.9301 110.367 30.7558 110.345 30.609C110.315 30.4622 110.27 30.3246 110.233 30.2971C110.196 30.2695 110.04 29.9759 109.885 29.6457C109.729 29.3154 109.536 28.9026 109.455 28.7374C109.373 28.5723 109.143 28.086 108.943 27.664C108.743 27.2512 108.461 26.6732 108.312 26.398C108.171 26.1227 107.993 25.7833 107.934 25.6457C107.667 25.0493 107.289 24.2971 107.029 23.8292C106.874 23.5539 106.747 23.2787 106.747 23.2145C106.747 23.1503 106.703 23.0677 106.658 23.031C106.525 22.9301 106.258 22.4438 106.191 22.187C106.162 22.0585 106.102 21.9209 106.065 21.8659C105.902 21.6273 105.338 20.4714 105.338 20.3704C105.338 20.0402 105.16 20.0035 103.536 19.9943C102.335 19.9851 101.919 20.0126 101.86 20.1044Z" fill="white"/>
<path d="M123.39 20.0769C123.353 20.1502 123.346 39.0769 123.383 39.1227C123.398 39.1411 126.216 39.1502 129.635 39.1594H135.858V37.2603V35.3704L132.706 35.3796C130.97 35.3888 129.035 35.4163 128.404 35.4438C127.744 35.4713 127.21 35.453 127.158 35.4071C127.077 35.3429 127.069 35.1227 127.128 34.2787C127.173 33.6273 127.173 32.8567 127.128 32.2328C127.091 31.6824 127.091 31.1961 127.121 31.1594C127.18 31.086 133.158 31.2145 133.892 31.3062C134.582 31.3888 134.582 31.3888 134.59 29.4255L134.597 27.7558L134.412 27.6365C134.271 27.5539 134.033 27.5447 133.485 27.5906C132.698 27.6732 127.232 27.7374 127.18 27.664C127.166 27.6457 127.136 26.7466 127.121 25.6824L127.091 23.7374L127.269 23.6824C127.366 23.6457 127.64 23.6457 127.87 23.6824C128.1 23.7099 129.932 23.7374 131.927 23.7466L135.561 23.7649V21.9025V20.0402L129.494 20.031C126.149 20.0218 123.405 20.0493 123.39 20.0769Z" fill="white"/>
<path d="M22.5014 24.8383C21.9897 24.8842 21.5002 24.9392 21.4038 24.9759C21.3074 25.0034 20.7511 25.0677 20.1726 25.1135C19.5941 25.1686 18.934 25.2695 18.7115 25.3429C18.489 25.4163 18.1701 25.4805 17.9995 25.4805C17.8289 25.4805 17.5471 25.5447 17.3765 25.6181C17.2059 25.6915 16.8425 25.8016 16.5681 25.8475C16.3011 25.9025 15.997 25.9851 15.8932 26.031C15.7894 26.086 15.4556 26.1778 15.1515 26.2511C14.8474 26.3245 14.3654 26.4713 14.0761 26.5722C13.7943 26.6732 13.4086 26.8016 13.2232 26.8658C13.0378 26.9209 12.7263 27.0401 12.5186 27.1411C12.3184 27.2328 12.0143 27.3337 11.8511 27.3704C11.6879 27.4071 11.4877 27.4897 11.4061 27.5539C11.3245 27.6181 11.0946 27.7007 10.8869 27.7374C10.6867 27.7741 10.4494 27.8567 10.3678 27.9209C10.2862 27.9943 10.123 28.0493 9.99695 28.0493C9.87828 28.0585 9.64095 28.1227 9.47778 28.1961C9.31462 28.2695 9.01795 28.3888 8.81028 28.4622C7.62362 28.875 7.37887 28.9576 7.17862 29.0493C6.09578 29.508 4.51603 29.6548 3.76695 29.3796C2.29103 28.82 1.71253 29.1135 2.17237 30.1869C2.3652 30.6365 2.35778 30.7741 2.0982 31.4071C1.97212 31.7007 1.83862 32.1135 1.79412 32.3154C1.74962 32.5172 1.66062 32.7833 1.59387 32.9117C1.17112 33.719 1.13403 33.8934 1.13403 34.9759C1.13403 35.6548 1.17112 36.1502 1.23787 36.3704C1.2972 36.5631 1.36395 36.8383 1.39362 36.9943C1.49745 37.5814 1.8757 37.453 1.8757 36.82C1.8757 36.6089 1.92762 36.2236 1.98695 35.9759C2.04628 35.7282 2.0982 35.4163 2.0982 35.2787C2.0982 35.0585 2.32812 34.4255 2.5432 34.0126C3.21812 32.7649 3.33678 32.6181 3.89303 32.3612C4.84978 31.9209 4.9462 31.8842 5.37637 31.8016C5.6137 31.7557 5.91778 31.664 6.04387 31.5998C6.17737 31.5264 6.48887 31.4438 6.73362 31.4071C6.97837 31.3796 7.34178 31.2878 7.54945 31.2145C8.54328 30.8383 13.2825 30.8383 14.484 31.2145C14.7065 31.2787 15.0922 31.3704 15.3369 31.3979C15.5817 31.4346 15.9229 31.5447 16.0934 31.6365C16.264 31.7374 16.4643 31.8108 16.5384 31.8108C16.6126 31.82 16.8054 31.8934 16.9686 31.9943C17.1318 32.0952 17.3172 32.1686 17.3765 32.1778C17.4433 32.1778 17.6213 32.2603 17.7844 32.3612C17.9402 32.4622 18.1849 32.5722 18.3259 32.5998C18.4594 32.6365 18.5929 32.719 18.6151 32.7833C18.6744 32.9667 19.0749 32.9484 19.1343 32.7557C19.1639 32.664 19.1417 32.5814 19.0898 32.5631C19.0379 32.5447 18.8895 32.4071 18.7634 32.2603C18.3407 31.7833 18.311 31.7466 18.0069 31.5539C17.7103 31.3704 17.1763 31.0677 16.7461 30.8475C16.6274 30.7833 16.3382 30.6273 16.1157 30.508C15.552 30.1961 15.0106 29.9851 14.5879 29.9209C14.3876 29.8842 14.039 29.8016 13.8165 29.7374C13.594 29.664 13.2529 29.6089 13.06 29.6089C12.793 29.6089 12.6892 29.5722 12.6521 29.4622C12.5705 29.1869 13.149 28.82 14.2244 28.4713C14.4321 28.3979 14.6769 28.3062 14.7807 28.2603C14.9587 28.1686 15.4704 27.9759 16.5236 27.5998C16.8129 27.4989 17.1911 27.3888 17.3765 27.3612C17.5619 27.3245 17.8957 27.2511 18.1182 27.1778C19.5941 26.7374 21.9304 26.4438 23.7919 26.453C24.8896 26.453 26.8328 26.7007 26.9811 26.8567C27.0256 26.9025 27.2407 26.9759 27.4632 27.031C27.6857 27.0768 28.0417 27.1869 28.2419 27.2695C29.2877 27.6823 29.5992 27.8108 29.7994 27.9117C29.9255 27.9851 30.3334 28.2053 30.7191 28.4071C31.0974 28.6181 31.4534 28.7833 31.5053 28.7833C31.5498 28.7833 31.6684 28.8658 31.7649 28.9667C31.8613 29.0677 31.9799 29.1502 32.0393 29.1502C32.0986 29.1502 32.3063 29.2145 32.5065 29.297C32.9812 29.4897 34.3829 29.3796 34.4126 29.1502C34.4349 29.0126 33.9824 28.5998 33.8193 28.5998C33.7674 28.5998 33.6116 28.508 33.4707 28.3979C33.3298 28.2878 33.0034 28.0585 32.7439 27.9025C32.4843 27.7374 32.2321 27.5539 32.1802 27.508C32.1283 27.453 31.8761 27.3062 31.6091 27.1869C31.3495 27.0585 30.86 26.7924 30.5189 26.5814C30.1777 26.3796 29.8439 26.2145 29.7772 26.2145C29.7104 26.2053 29.5176 26.1319 29.3544 26.031C29.1913 25.93 28.9836 25.8567 28.8946 25.8475C28.8056 25.8475 28.5683 25.7649 28.3754 25.6732C28.1752 25.5814 27.8118 25.4713 27.5744 25.4346C27.3297 25.3979 27.0924 25.3337 27.0479 25.2878C27.0034 25.242 26.6474 25.1686 26.2617 25.1135C25.8686 25.0585 25.4384 24.9759 25.2975 24.9209C24.9267 24.7924 23.5398 24.7466 22.5014 24.8383Z" fill="white"/>
<path d="M21.6783 29.875C21.3 29.9576 21.3149 30.1686 21.745 30.508C22.0269 30.7374 22.19 30.8016 22.4719 30.8016C22.6721 30.8016 22.902 30.8567 22.9836 30.9301C23.0652 31.0034 23.2951 31.086 23.4954 31.1227C23.703 31.1502 24.0664 31.2328 24.3112 31.3062C24.5559 31.3704 25.0232 31.4713 25.3495 31.5264C25.6759 31.5814 26.1283 31.664 26.3508 31.7099C27.4929 31.9576 30.8972 32.0585 32.8404 31.9025C34.383 31.7741 41.0951 31.7741 41.6662 31.9025C41.9109 31.9667 42.5117 32.0585 43.0012 32.1227C43.4907 32.1961 43.9802 32.2878 44.084 32.3429C44.1879 32.3888 44.4697 32.4622 44.7144 32.4989C44.9518 32.5356 45.2559 32.6181 45.3745 32.6823C45.5006 32.7374 45.7305 32.82 45.8937 32.8567C46.2645 32.9392 47.0507 33.2512 47.4586 33.4713C47.6292 33.5723 47.822 33.6456 47.8888 33.6456C47.9555 33.6456 48.1558 33.7374 48.3264 33.8475C48.7269 34.1044 48.89 34.1961 48.9271 34.1961C48.9419 34.1961 49.1125 33.8475 49.2098 33.6456C49.3071 33.4438 49.4438 33.2148 49.4438 33.2148C49.4438 33.2148 48.0149 32.1778 47.9629 32.1778C47.9259 32.1778 47.7998 32.1135 47.6737 32.031C47.3919 31.8475 46.7392 31.5539 46.2571 31.4071C46.0494 31.3337 45.8195 31.242 45.7379 31.1869C45.6638 31.1411 45.4339 31.0677 45.2262 31.031C45.0259 31.0034 44.7219 30.9117 44.5587 30.8475C44.3955 30.7741 43.9654 30.6732 43.5945 30.6273C43.2311 30.5814 42.8306 30.4897 42.7045 30.4346C42.0593 30.1227 33.5746 30.1227 32.1358 30.4438C30.9417 30.7007 24.8452 30.6273 24.237 30.3429C24.1332 30.297 23.6956 30.2328 23.258 30.1961C22.6499 30.1502 22.4125 30.0952 22.279 29.9667C22.1826 29.8658 22.0639 29.8016 22.0194 29.8016C21.9749 29.8108 21.8192 29.8383 21.6783 29.875Z" fill="white"/>
<path d="M14.8251 32.6915C14.7435 32.9484 14.7806 33.2328 14.9289 33.4622C15.0105 33.5906 15.0773 33.7282 15.0773 33.7833C15.0773 33.9025 15.8041 34.9484 15.9524 35.0585C16.0192 35.1044 16.2565 35.3704 16.4864 35.6548C16.7089 35.9392 17.0427 36.2603 17.2281 36.3704C17.9549 36.8016 18.2442 36.9484 18.4073 36.9484C18.4963 36.9484 18.6669 37.0126 18.7856 37.086C19.2306 37.3704 21.3073 37.4897 27.871 37.5906C31.3791 37.6548 34.4125 37.6732 34.6053 37.6365C35.1913 37.5264 35.1319 37.3337 34.4718 37.2145C34.2716 37.1686 33.8043 37.0768 33.4335 37.0035C33.0701 36.9301 32.0688 36.8475 31.2085 36.8108C30.3556 36.7833 29.1689 36.7007 28.5756 36.6273C27.9823 36.5539 26.8772 36.4805 26.1133 36.453C25.3493 36.4255 24.6596 36.3612 24.5854 36.3154C24.5113 36.2695 23.7251 36.1869 22.8425 36.1319C21.9525 36.086 21.2034 36.0218 21.1663 35.9943C21.1367 35.9668 20.7139 35.8842 20.2393 35.8108C19.7646 35.7374 19.3344 35.6365 19.2825 35.5906C19.2306 35.5356 19.06 35.4713 18.8968 35.4346C18.7337 35.3979 18.5334 35.3154 18.4444 35.2512C18.3554 35.1778 18.0736 35.0218 17.814 34.8842C17.5544 34.7466 17.2726 34.5631 17.1836 34.4622C17.102 34.3704 16.9759 34.2879 16.9092 34.2879C16.8424 34.2879 16.7757 34.2512 16.746 34.2053C16.7238 34.1594 16.4493 33.8934 16.123 33.6181C15.8041 33.3337 15.4333 32.9851 15.2923 32.8291C15.0179 32.508 14.8918 32.4713 14.8251 32.6915Z" fill="white"/>
<path d="M8.55066 33.3979C8.28366 33.508 7.98699 33.6732 7.88316 33.7649C7.78674 33.8475 7.67549 33.9209 7.63841 33.9209C7.47524 33.9209 6.62974 34.8567 6.30341 35.3979C6.23666 35.5172 6.09574 35.7466 5.99191 35.9025C5.88808 36.0677 5.80649 36.297 5.80649 36.4163C5.80649 36.5356 5.75458 36.7282 5.68783 36.8383C5.54691 37.086 5.59883 37.3154 5.78424 37.3154C5.91774 37.3154 6.32566 36.9117 6.32566 36.7833C6.32566 36.5539 7.63841 35.1135 7.84608 35.1135C7.88316 35.1135 7.96474 35.0585 8.02408 34.9943C8.09083 34.9209 8.46908 34.7741 8.86216 34.6548C10.39 34.2145 11.9104 34.8567 13.0007 36.4071C13.5347 37.1594 13.594 37.2236 13.7423 37.2236C13.8313 37.2236 13.8907 37.1594 13.8907 37.0677C13.8907 36.7557 13.5124 35.7007 13.3047 35.4163C13.1861 35.2511 13.0748 35.086 13.06 35.0401C13.0229 34.9209 12.0142 33.9209 11.9327 33.9209C11.8956 33.9209 11.8066 33.8658 11.7472 33.8016C11.1984 33.2328 9.47033 33.0126 8.55066 33.3979Z" fill="white"/>
<path d="M41.5919 33.2512C40.4868 33.453 38.692 34.9026 38.4695 35.7741C38.4398 35.8934 38.3583 36.086 38.2841 36.2053C38.2025 36.3246 38.1432 36.5356 38.1432 36.664C38.1432 36.8016 38.1061 36.9576 38.0542 37.0218C37.9948 37.0952 38.0171 37.1503 38.1654 37.2328C38.3879 37.3613 38.5437 37.2512 38.6327 36.9301C38.7217 36.5723 40.0122 35.1136 40.2347 35.1136C40.2866 35.1136 40.4053 35.0493 40.4943 34.9759C40.7316 34.7741 41.7328 34.4714 42.1778 34.4714C42.8231 34.4714 44.0765 34.9301 44.4844 35.3154C44.9368 35.7466 45.2335 36.0769 45.4634 36.4255C46.0271 37.2695 46.2941 36.664 45.7749 35.7191C44.8108 33.9484 43.1568 32.9759 41.5919 33.2512Z" fill="white"/>
<path d="M134.641 43.5906C134.552 43.7282 134.508 55.8475 134.597 56.031C134.649 56.1411 135.591 56.1503 135.732 56.0493C135.895 55.9117 135.865 43.7282 135.695 43.5814C135.524 43.4163 134.753 43.4255 134.641 43.5906Z" fill="white"/>
<path d="M61.3575 44.3521C61.3575 44.4438 61.3575 47.0768 61.35 50.2145C61.3426 53.3521 61.3575 55.9576 61.3871 56.0218C61.4465 56.1411 62.381 56.1594 62.5367 56.0401C62.6183 55.9759 62.6331 55.6181 62.6109 54.1411L62.5812 52.3154H64.161C65.889 52.3154 65.8594 52.3062 66.1338 52.9025C66.1783 52.9943 66.3934 53.3979 66.6085 53.7833C66.8161 54.1686 66.9941 54.5172 67.0015 54.5447C67.0015 54.5814 67.1202 54.7924 67.2611 55.0218C67.3946 55.2512 67.543 55.5172 67.58 55.6181C67.6987 55.9576 67.8915 56.0768 68.47 56.1319C69.2562 56.2145 69.412 56.0126 69.0189 55.4346C68.9002 55.2787 68.7593 55.0493 68.7 54.9301C68.6406 54.8108 68.522 54.6273 68.4404 54.5264C68.2624 54.3062 67.6913 53.3704 67.402 52.8475C67.3056 52.6548 67.1647 52.4163 67.1054 52.3062C66.9496 52.0401 67.0238 51.8567 67.3872 51.6365C67.8767 51.3429 68.2772 50.9576 68.4552 50.6181C68.5516 50.4438 68.6555 50.2512 68.6925 50.1869C69.1895 49.4622 69.1672 46.9576 68.6629 46.3429C68.6035 46.2603 68.5516 46.1502 68.5516 46.0952C68.5516 45.8475 67.8248 45.0952 67.2908 44.7833C66.3785 44.242 66.0967 44.1961 63.6418 44.1961C61.5132 44.1961 61.3575 44.2053 61.3575 44.3521ZM65.9187 45.6732C66.6233 45.8108 67.5875 46.5998 67.5875 47.0401C67.5875 47.1135 67.6542 47.3429 67.7432 47.5356C67.899 47.8934 67.8915 48.8475 67.7358 49.1044C67.7061 49.1502 67.6542 49.297 67.6245 49.4255C67.5133 49.8567 66.7642 50.6732 66.3266 50.8383C66.0151 50.9484 62.737 51.0768 62.6554 50.9759C62.5886 50.8934 62.5886 45.7099 62.6554 45.5723C62.7073 45.4713 65.3105 45.5631 65.9187 45.6732Z" fill="white"/>
<path d="M106.199 45.1227C106.117 45.2695 106.102 45.5264 106.132 46.2237L106.176 47.1319H105.546C104.819 47.1319 104.745 47.187 104.745 47.7833C104.745 48.3704 104.834 48.4438 105.538 48.398L106.117 48.3704L106.154 51.4989C106.184 54.3154 106.206 54.6549 106.325 54.8108C106.391 54.9117 106.451 55.0218 106.451 55.0677C106.451 55.1503 106.925 55.7191 107.148 55.8934C108.001 56.5631 110.671 55.9209 109.974 55.2053C109.914 55.1411 109.862 55.0126 109.862 54.9301C109.862 54.4347 109.44 54.2971 109.069 54.6549C108.535 55.1778 107.467 54.7007 107.385 53.9026C107.289 52.976 107.289 48.5081 107.385 48.4071C107.452 48.3429 107.771 48.3429 108.431 48.4071C109.521 48.5172 109.64 48.453 109.64 47.7833C109.64 47.1594 109.543 47.0952 108.631 47.1227C108.186 47.1319 107.763 47.1594 107.697 47.187C107.37 47.3062 107.304 47.1136 107.333 46.0952C107.356 44.9943 107.37 45.0218 106.747 44.976C106.369 44.9484 106.288 44.9668 106.199 45.1227Z" fill="white"/>
<path d="M78.6011 47.1227C78.3563 47.1594 78.0597 47.2603 77.9336 47.3429C77.8149 47.4255 77.674 47.4989 77.6295 47.4989C77.585 47.4989 77.4886 47.5814 77.4144 47.6823C77.3402 47.7833 77.2438 47.8658 77.2067 47.8658C77.1103 47.8658 76.1907 49.0401 76.1907 49.1594C76.1907 49.2145 76.1239 49.3612 76.0423 49.4897C75.9607 49.6181 75.894 49.82 75.894 49.9484C75.894 50.0677 75.8421 50.3154 75.7827 50.4897C75.6196 50.9668 75.6196 52.4163 75.7753 52.7741C75.8421 52.9209 75.894 53.1319 75.894 53.2328C75.894 53.3337 75.9607 53.5172 76.0423 53.6457C76.1239 53.7741 76.1907 53.9209 76.1907 53.9759C76.1907 54.242 77.4515 55.664 77.6888 55.664C77.7333 55.664 77.8742 55.7374 78.0003 55.8383C78.653 56.3154 80.6036 56.2603 81.3452 55.7374C81.5529 55.5998 81.8051 55.4346 81.9237 55.3796C82.035 55.3246 82.124 55.242 82.124 55.1961C82.124 55.1502 82.2056 55.0585 82.3094 55.0035C82.5912 54.8475 82.5616 54.4163 82.2427 54.031C81.9163 53.6457 81.7309 53.6548 81.3749 54.1044C81.2117 54.3062 81.0337 54.4713 80.9744 54.4713C80.9151 54.4713 80.7371 54.5539 80.5887 54.6548C80.1957 54.9117 79.0312 54.9117 78.6011 54.6548C78.4379 54.5539 78.2747 54.4805 78.2377 54.4713C78.1561 54.4713 77.5405 53.8567 77.3551 53.5998C77.1252 53.2695 76.8507 52.5172 76.873 52.2787L76.8952 52.0401L79.8026 52.0677C82.9843 52.1044 83.014 52.0952 83.014 51.5998C83.014 50.5264 82.5097 49.0677 81.8718 48.297C81.2711 47.5631 81.2043 47.4989 81.0782 47.4989C81.0189 47.4989 80.8557 47.4163 80.7074 47.3245C80.4033 47.1227 79.3131 47.0218 78.6011 47.1227ZM80.2847 48.5264C81.056 49.0218 81.323 49.3521 81.6271 50.1961C81.9386 51.0218 81.946 51.0218 80.1586 50.9668C79.3427 50.9392 78.3267 50.9484 77.8965 50.9759C76.7766 51.0677 76.6876 50.9668 77.0584 50.0493C77.2512 49.5814 77.9187 48.6915 78.0819 48.6915C78.119 48.6823 78.2896 48.609 78.4527 48.508C78.8977 48.242 79.8619 48.2512 80.2847 48.5264Z" fill="white"/>
<path d="M90.1637 47.1319C90.0451 47.187 89.9783 55.7925 90.097 56.0218C90.1637 56.1686 91.1502 56.1503 91.2243 56.0035C91.254 55.9484 91.2688 54.8567 91.2614 53.5998C91.2243 50.3796 91.343 49.7466 92.1217 48.9851C93.034 48.0952 94.6953 48.187 95.259 49.1594C95.7559 50.0218 95.7782 50.2145 95.7559 53.187C95.7485 54.6732 95.7633 55.9484 95.8004 56.0126C95.8597 56.1319 96.7868 56.1686 96.9352 56.0493C97.0093 55.9943 97.0242 55.3246 97.0019 53.1411C96.9574 49.5172 96.8907 49.086 96.1564 48.1136C95.5334 47.2971 95.1107 47.1136 93.8424 47.1136C92.6335 47.1136 92.4036 47.2053 91.7138 47.9301C91.1947 48.4805 91.2169 48.4805 91.1724 47.7925L91.1353 47.1778L90.7052 47.1319C90.4752 47.1044 90.2305 47.1044 90.1637 47.1319Z" fill="white"/>
<path d="M120.579 47.1227C119.519 47.2879 118.399 48.4805 117.895 49.9759C117.665 50.664 117.642 52.6365 117.865 53.1686C117.939 53.3521 118.08 53.7099 118.176 53.9668C118.347 54.398 118.977 55.297 119.118 55.297C119.155 55.297 119.244 55.3796 119.319 55.4805C119.393 55.5814 119.504 55.664 119.563 55.664C119.623 55.664 119.778 55.7466 119.904 55.8383C120.416 56.2328 122.226 56.2879 122.693 55.9301C122.752 55.8842 122.908 55.7833 123.027 55.7191C123.153 55.6457 123.375 55.4438 123.531 55.2695C123.68 55.0952 123.895 54.875 124.006 54.7924L124.199 54.6365L124.154 55.2695C124.102 55.8934 124.11 55.9117 124.295 56.0126C124.755 56.2787 125.504 56.0126 125.311 55.6457C125.282 55.5814 125.252 53.6457 125.252 51.3521V47.1778L124.762 47.1502C124.132 47.1135 124.073 47.1961 124.169 47.9209C124.243 48.5264 124.184 48.7007 123.976 48.4438C123.019 47.2695 122.07 46.9025 120.579 47.1227ZM122.3 48.5264C124.169 49.4071 124.688 52.2053 123.309 53.9668C122.671 54.7741 121.284 55.1227 120.505 54.6548C120.342 54.5539 120.171 54.4805 120.127 54.4713C120.023 54.4713 119.37 53.5814 119.141 53.1319C118.859 52.5814 118.866 50.7741 119.148 50.1319C119.489 49.3704 120.008 48.7649 120.431 48.6365C120.55 48.5998 120.728 48.5172 120.832 48.453C121.128 48.2603 121.803 48.297 122.3 48.5264Z" fill="white"/>
</svg>
